<?xml version="1.0" encoding="iso-8859-1"?>
<!-- Uploaded to: SVG Repo, www.svgrepo.com, Generator: SVG Repo Mixer Tools -->
<svg height="800px" width="800px" version="1.1" id="Layer_1" xmlns="http://www.w3.org/2000/svg" xmlns:xlink="http://www.w3.org/1999/xlink" 
	 viewBox="0 0 512 512" xml:space="preserve">
<path style="fill:#615349;" d="M239.304,190.097h5.565v-34.333l-94.022-87.597c-14.858-13.706-35.565-17.19-54.065-9.076
	c-18.5,8.097-30,25.679-30,45.881v124.081c0,9.223,7.479,16.696,16.696,16.696s16.696-7.473,16.696-16.696V104.972
	c0-10.131,7.652-14.266,10-15.293c2.359-1.027,10.587-3.848,17.968,2.973l99.782,92.967
	C231.011,188.494,235.076,190.097,239.304,190.097z"/>
<g>
	<path style="fill:#E3B236;" d="M33.587,398.553c-3.739,0-7.533-0.63-11.25-1.934C8.772,391.858,0,379.488,0,365.107V262.444
		c0-27.619,22.468-50.087,50.087-50.087h82.13c12.957,0,24.478,7.25,30.098,18.924c5.609,11.674,4.076,25.206-4.011,35.32
		L59.359,386.097C52.837,394.168,43.424,398.553,33.587,398.553z"/>
	<path style="fill:#E3B236;" d="M395.13,89.923H285.606c-21.592,0-40.625,13.802-47.526,34.282l-10.798,32.501l-7.454,22.261
		h136.346v55.652H211.478v72.348c0,9.238,7.456,16.696,16.696,16.696h200.348c9.239,0,16.696-7.457,16.696-16.696V140.01
		C445.217,112.406,422.734,89.923,395.13,89.923z"/>
</g>
<path style="fill:#DA9A2B;" d="M395.13,89.923h-66.783v233.739h100.174c9.239,0,16.696-7.457,16.696-16.696V140.01
	C445.217,112.406,422.734,89.923,395.13,89.923z"/>
<path style="fill:#6E6057;" d="M428.522,457.227H228.174c-46.032,0-83.478-37.446-83.478-83.478s37.446-83.478,83.478-83.478
	h200.348c46.032,0,83.478,37.446,83.478,83.478S474.554,457.227,428.522,457.227z"/>
<path style="fill:#615349;" d="M428.522,290.27H328.348v166.957h100.174c46.032,0,83.478-37.446,83.478-83.478
	S474.554,290.27,428.522,290.27z"/>
<path style="fill:#DBDFE3;" d="M228.174,323.662c-27.619,0-50.087,22.468-50.087,50.087c0,27.619,22.468,50.087,50.087,50.087
	h200.348c27.619,0,50.087-22.468,50.087-50.087c0-27.619-22.468-50.087-50.087-50.087H228.174z"/>
<path style="fill:#CAD1D7;" d="M428.522,323.662H328.348v100.174h100.174c27.619,0,50.087-22.468,50.087-50.087
	C478.609,346.13,456.141,323.662,428.522,323.662z"/>
<g>
	<circle style="fill:#6E6057;" cx="228.174" cy="373.749" r="16.696"/>
	<circle style="fill:#6E6057;" cx="294.957" cy="373.749" r="16.696"/>
</g>
<g>
	<circle style="fill:#615349;" cx="361.739" cy="373.749" r="16.696"/>
	<circle style="fill:#615349;" cx="428.522" cy="373.749" r="16.696"/>
</g>
<path style="fill:#6E6057;" d="M378.435,173.401v66.783c0,9.238-7.456,16.696-16.696,16.696H211.478v-28.383
	c0-16.25,2.56-32.167,7.679-47.527l8.125-24.264h134.457C370.978,156.705,378.435,164.163,378.435,173.401z"/>
<path style="fill:#615349;" d="M361.739,156.705h-33.391v100.174h33.391c9.239,0,16.696-7.457,16.696-16.696v-66.783
	C378.435,164.163,370.978,156.705,361.739,156.705z"/>
</svg>